<svg xmlns="http://www.w3.org/2000/svg" viewBox="0 0 32 32">
  <defs>
    <linearGradient id="bg" x1="0%" y1="0%" x2="100%" y2="100%">
      <stop offset="0%" style="stop-color:#10b981"/>
      <stop offset="100%" style="stop-color:#0d9488"/>
    </linearGradient>
  </defs>
  <rect width="32" height="32" rx="7" fill="url(#bg)"/>
  <!-- Stylized sprouting bud from a pot/bowl -->
  <!-- Bowl/pot base -->
  <path d="M10 22 C10 22 11 25 16 25 C21 25 22 22 22 22 L21 20 H11 Z" fill="white" opacity="0.95"/>
  <!-- Bowl rim -->
  <rect x="9" y="19" width="14" height="2.5" rx="1.25" fill="white"/>
  <!-- Stem -->
  <line x1="16" y1="19" x2="16" y2="12" stroke="white" stroke-width="1.8" stroke-linecap="round"/>
  <!-- Left leaf -->
  <path d="M16 14 C14 12 10 11.5 9 13 C8 14.5 10 16.5 16 14" fill="white" opacity="0.9"/>
  <!-- Right leaf -->
  <path d="M16 11.5 C18 9.5 22 9 23 10.5 C24 12 22 14 16 11.5" fill="white" opacity="0.9"/>
  <!-- Small bud top -->
  <circle cx="16" cy="9.5" r="1.5" fill="white" opacity="0.9"/>
</svg>
